<?xml version="1.0" standalone="no"?>
<!DOCTYPE svg PUBLIC "-//W3C//DTD SVG 20010904//EN"
 "http://www.w3.org/TR/2001/REC-SVG-20010904/DTD/svg10.dtd">
<svg version="1.0" xmlns="http://www.w3.org/2000/svg"
 width="2133.000000pt" height="2133.000000pt" viewBox="0 0 2133.000000 2133.000000"
 preserveAspectRatio="xMidYMid meet">
<metadata>
Created by potrace 1.11, written by Peter Selinger 2001-2013
</metadata>
<g transform="translate(0.000000,2133.000000) scale(0.100000,-0.100000)"
fill="#000000" stroke="none">
<path d="M10657 19212 c-3042 -1 -4946 -6 -4942 -11 3 -5 -8 -32 -23 -58 -16
-27 -40 -69 -54 -94 -14 -24 -83 -143 -153 -264 -70 -121 -137 -238 -150 -260
-12 -22 -52 -91 -89 -154 -36 -62 -66 -115 -66 -116 0 -2 -17 -32 -38 -66 -22
-35 -50 -84 -64 -109 -20 -35 -258 -449 -348 -605 -10 -16 -42 -73 -72 -125
-30 -52 -89 -155 -131 -227 -84 -144 -180 -312 -318 -552 -49 -84 -89 -156
-89 -159 0 -3 -6 -13 -14 -21 -7 -9 -28 -43 -45 -76 -18 -32 -41 -71 -52 -86
-10 -15 -19 -30 -19 -33 0 -3 -13 -27 -29 -54 -15 -26 -39 -68 -53 -93 -14
-24 -41 -71 -60 -104 -19 -33 -79 -136 -133 -230 -54 -93 -106 -183 -116 -200
-11 -16 -22 -37 -26 -45 -3 -8 -16 -31 -28 -50 -12 -19 -33 -55 -47 -80 -42
-75 -208 -364 -218 -380 -5 -8 -21 -35 -35 -60 -14 -25 -30 -52 -35 -60 -6 -8
-42 -71 -81 -140 -40 -69 -115 -199 -167 -290 -52 -91 -103 -178 -112 -195 -9
-16 -51 -89 -93 -162 -42 -72 -85 -147 -95 -165 -22 -38 -268 -466 -282 -488
-9 -15 -150 -261 -201 -349 -14 -25 -91 -158 -171 -296 -79 -137 -234 -405
-343 -595 -109 -190 -218 -378 -242 -417 -23 -40 -43 -77 -43 -83 0 -5 -4 -10
-10 -10 -5 0 -10 -5 -10 -11 0 -6 -38 -76 -85 -155 -47 -80 -85 -148 -85 -151
0 -4 -6 -14 -14 -22 -8 -9 -26 -38 -40 -66 -15 -27 -31 -57 -36 -65 -11 -17
-199 -345 -249 -433 -19 -32 -42 -62 -52 -65 -16 -7 -17 -10 -4 -32 8 -14 17
-32 21 -40 4 -8 22 -39 41 -68 18 -29 33 -54 33 -56 0 -2 64 -113 141 -247 78
-134 153 -264 166 -288 38 -67 422 -734 433 -751 8 -13 49 -83 159 -274 13
-23 90 -156 171 -296 81 -140 157 -271 167 -290 11 -19 71 -123 133 -230 63
-107 129 -222 147 -255 19 -33 43 -76 55 -95 56 -95 185 -319 306 -530 74
-129 138 -239 142 -245 4 -5 19 -30 32 -55 14 -25 177 -308 363 -630 410 -708
382 -661 395 -685 6 -11 20 -36 31 -55 25 -41 267 -458 298 -512 11 -21 31
-55 42 -75 12 -21 85 -148 163 -283 79 -135 175 -301 215 -370 40 -69 76 -132
81 -140 34 -57 137 -238 143 -250 4 -8 16 -29 26 -46 26 -42 145 -248 309
-534 74 -129 138 -239 142 -245 4 -5 19 -30 32 -55 39 -69 98 -171 119 -205
10 -16 22 -37 26 -45 4 -8 29 -53 56 -100 27 -47 57 -98 67 -115 69 -121 175
-304 188 -325 9 -14 16 -27 16 -30 0 -3 14 -28 32 -56 18 -29 30 -55 26 -58
-3 -4 -1 -10 5 -14 6 -4 2236 -6 4955 -4 l4943 3 138 242 c75 133 192 337 258
452 148 256 154 266 178 309 11 19 31 53 45 75 15 22 26 43 26 45 0 5 85 153
225 391 29 50 82 142 118 205 36 63 104 183 152 265 48 83 99 170 113 195 14
25 45 78 69 118 24 41 43 76 43 78 0 3 16 30 35 60 19 30 35 56 35 59 0 3 29
53 63 112 35 60 99 169 141 243 42 74 81 142 86 150 6 8 14 24 20 35 5 11 20
37 32 57 20 33 98 167 156 268 43 77 329 572 392 680 37 63 79 135 92 160 14
25 116 201 227 393 110 191 201 352 201 357 0 6 3 10 8 10 4 0 12 10 18 23 5
12 54 99 109 192 54 94 106 185 117 203 21 37 10 19 203 352 81 140 216 374
300 520 84 146 194 337 245 425 51 88 204 354 340 590 136 237 280 486 320
555 98 169 107 185 128 223 190 333 280 481 294 485 10 2 18 6 18 9 0 2 -29
52 -63 111 -35 59 -125 213 -199 342 -75 129 -145 251 -156 270 -12 19 -27 46
-35 60 -7 14 -23 41 -34 60 -11 19 -73 127 -138 240 -191 332 -475 824 -484
840 -13 20 -165 284 -295 509 -58 101 -106 187 -106 192 0 5 -4 9 -10 9 -5 0
-10 4 -10 9 0 4 -29 58 -64 119 -36 61 -76 131 -89 154 -14 24 -57 99 -97 168
-40 69 -81 141 -92 160 -11 19 -44 76 -73 125 -29 50 -62 107 -74 128 -31 54
-46 80 -186 322 -70 121 -141 245 -158 275 -17 30 -48 84 -69 119 -21 34 -38
67 -38 72 0 5 -4 9 -10 9 -5 0 -10 5 -10 10 0 6 -38 76 -85 156 -47 81 -85
148 -85 150 0 3 -12 23 -27 47 -14 23 -78 132 -141 242 -63 110 -138 241 -167
290 -66 114 -306 528 -332 575 -11 19 -85 148 -165 285 -80 138 -156 270 -170
295 -14 25 -58 101 -98 170 -40 68 -81 138 -90 155 -9 16 -77 134 -150 260
-73 127 -141 244 -150 260 -62 108 -96 165 -165 285 -43 74 -86 149 -96 167
-10 18 -94 164 -187 325 -94 161 -179 309 -190 328 -10 19 -40 70 -66 113 -25
43 -46 81 -46 86 0 5 -7 14 -15 21 -8 7 -15 23 -15 35 0 13 -6 24 -12 26 -7 2
-2240 3 -4961 1z"/>
</g>
</svg>
